<svg width="256" height="256" viewBox="0 0 256 256" fill="none" xmlns="http://www.w3.org/2000/svg">
  <defs>
    <linearGradient id="cardTop" x1="72" y1="56" x2="156" y2="152" gradientUnits="userSpaceOnUse">
      <stop stop-color="#FFFDF8"/>
      <stop offset="1" stop-color="#F2E7D5"/>
    </linearGradient>
    <linearGradient id="cardMid" x1="88" y1="78" x2="176" y2="176" gradientUnits="userSpaceOnUse">
      <stop stop-color="#FFF7EB"/>
      <stop offset="1" stop-color="#EAD8BC"/>
    </linearGradient>
    <filter id="shadow" x="0" y="20" width="256" height="216" filterUnits="userSpaceOnUse" color-interpolation-filters="sRGB">
      <feDropShadow dx="0" dy="18" stdDeviation="18" flood-color="#B88A45" flood-opacity="0.18"/>
      <feDropShadow dx="0" dy="6" stdDeviation="6" flood-color="#2D3543" flood-opacity="0.14"/>
    </filter>
    <filter id="glow" x="12" y="52" width="232" height="172" filterUnits="userSpaceOnUse" color-interpolation-filters="sRGB">
      <feGaussianBlur stdDeviation="18"/>
    </filter>
  </defs>
  <g opacity="0.45" filter="url(#glow)">
    <ellipse cx="128" cy="170" rx="86" ry="26" fill="#FFD772"/>
  </g>
  <g filter="url(#shadow)">
    <rect x="54" y="86" width="114" height="82" rx="20" fill="url(#cardMid)"/>
    <rect x="76" y="64" width="116" height="84" rx="20" fill="#FFF9F0"/>
    <rect x="92" y="42" width="112" height="86" rx="20" fill="url(#cardTop)"/>
    <rect x="106" y="62" width="66" height="12" rx="6" fill="#50607C" fill-opacity="0.2"/>
    <rect x="106" y="84" width="82" height="10" rx="5" fill="#50607C" fill-opacity="0.16"/>
    <rect x="106" y="102" width="58" height="10" rx="5" fill="#50607C" fill-opacity="0.16"/>
    <rect x="58" y="96" width="44" height="44" rx="16" fill="#7A5AF8"/>
    <path d="M74 118H86" stroke="#FFF9F0" stroke-width="9" stroke-linecap="round"/>
    <path d="M80 112V124" stroke="#FFF9F0" stroke-width="9" stroke-linecap="round"/>
    <path d="M194 54L201 40" stroke="#FFC43B" stroke-width="6" stroke-linecap="round"/>
    <path d="M205 70L220 68" stroke="#FFC43B" stroke-width="6" stroke-linecap="round"/>
    <path d="M189 80L198 91" stroke="#FFC43B" stroke-width="6" stroke-linecap="round"/>
    <circle cx="196" cy="66" r="14" fill="#FFD55E"/>
    <circle cx="196" cy="66" r="7" fill="#FFF7D1"/>
  </g>
</svg>
