<svg width="256" height="256" viewBox="0 0 256 256" fill="none" xmlns="http://www.w3.org/2000/svg">
  <defs>
    <linearGradient id="paper" x1="58" y1="70" x2="118" y2="156" gradientUnits="userSpaceOnUse">
      <stop stop-color="#FFFDF8"/>
      <stop offset="1" stop-color="#F0E2C6"/>
    </linearGradient>
    <filter id="anyShadow" x="8" y="24" width="240" height="212" filterUnits="userSpaceOnUse" color-interpolation-filters="sRGB">
      <feDropShadow dx="0" dy="18" stdDeviation="18" flood-color="#B88A45" flood-opacity="0.16"/>
      <feDropShadow dx="0" dy="6" stdDeviation="6" flood-color="#2D3543" flood-opacity="0.14"/>
    </filter>
    <filter id="anyGlow" x="20" y="56" width="216" height="168" filterUnits="userSpaceOnUse" color-interpolation-filters="sRGB">
      <feGaussianBlur stdDeviation="18"/>
    </filter>
  </defs>
  <g opacity="0.42" filter="url(#anyGlow)">
    <ellipse cx="128" cy="172" rx="84" ry="24" fill="#FFD978"/>
  </g>
  <g filter="url(#anyShadow)">
    <rect x="42" y="86" width="64" height="84" rx="18" fill="url(#paper)"/>
    <rect x="96" y="70" width="72" height="92" rx="20" fill="#FFF8ED"/>
    <rect x="156" y="92" width="58" height="78" rx="18" fill="#FFF4E1"/>
    <rect x="54" y="102" width="28" height="28" rx="10" fill="#5A8BFF"/>
    <path d="M59 116H77" stroke="#F8FBFF" stroke-width="6" stroke-linecap="round"/>
    <path d="M59 124H73" stroke="#F8FBFF" stroke-width="6" stroke-linecap="round"/>
    <rect x="110" y="86" width="30" height="30" rx="10" fill="#31C48D"/>
    <path d="M119 101L124 106L132 96" stroke="#F7FFF9" stroke-width="6" stroke-linecap="round" stroke-linejoin="round"/>
    <rect x="169" y="108" width="28" height="28" rx="10" fill="#FF8A3D"/>
    <circle cx="183" cy="122" r="6" fill="#FFF5EB"/>
    <rect x="52" y="140" width="42" height="8" rx="4" fill="#50607C" fill-opacity="0.18"/>
    <rect x="110" y="128" width="44" height="8" rx="4" fill="#50607C" fill-opacity="0.18"/>
    <rect x="169" y="146" width="32" height="8" rx="4" fill="#50607C" fill-opacity="0.18"/>
    <path d="M120 50L125 40" stroke="#FFC43B" stroke-width="6" stroke-linecap="round"/>
    <path d="M137 58L148 55" stroke="#FFC43B" stroke-width="6" stroke-linecap="round"/>
    <path d="M107 60L99 52" stroke="#FFC43B" stroke-width="6" stroke-linecap="round"/>
    <circle cx="122" cy="56" r="11" fill="#FFD55E"/>
  </g>
</svg>
